<?xml version="1.0" encoding="utf-8"?>
<svg xmlns="http://www.w3.org/2000/svg" xmlns:xlink="http://www.w3.org/1999/xlink">
    <symbol viewBox="0 0 12 7" id="arrow-rounded-down-12x7" xmlns="http://www.w3.org/2000/svg">
        <path d="M.286.273a.92.92 0 0 0-.01 1.292l5.24 5.428 5.241-5.428a.92.92 0 0 0-.01-1.292.923.923 0 0 0-1.31.006L5.516 4.296 1.596.279A.923.923 0 0 0 .286.273z"/>
    </symbol>
    <symbol viewBox="0 0 7 5" id="arrow-rounded-down-7x5" xmlns="http://www.w3.org/2000/svg">
        <path d="M.3.3c.4-.4 1-.4 1.3 0l1.9 2 1.9-2c.4-.4 1-.4 1.3 0 .4.4.4.9 0 1.3L3.5 5 .3 1.6C-.1 1.2-.1.6.3.3z"/>
    </symbol>
    <symbol viewBox="0 0 9 6" id="arrow-rounded-down-9x6" xmlns="http://www.w3.org/2000/svg">
        <path d="M.2.4c.4-.4 1-.5 1.4-.1l2.9 3 2.9-3c.4-.4 1.1-.4 1.4.1.3.4.3.9-.1 1.3L4.5 6 .3 1.6C-.1 1.3-.1.7.2.4z"/>
    </symbol>
    <symbol viewBox="0 0 6 9" id="arrow-rounded-left-6x9" xmlns="http://www.w3.org/2000/svg">
        <path d="M5.7 8.7c-.4.4-.9.4-1.3 0L0 4.5 4.4.3c.4-.4.9-.3 1.3 0 .4.4.4 1 0 1.3l-3 2.9 3 2.9c.4.4.4 1 0 1.3z"/>
    </symbol>
    <symbol viewBox="0 0 7 11" id="arrow-rounded-left-7x11" xmlns="http://www.w3.org/2000/svg">
        <path d="M6.7.3c-.4-.4-.9-.4-1.3 0L0 5.5l5.4 5.2c.4.4.9.3 1.3 0 .4-.4.4-1 0-1.3l-4-3.9 4-3.9c.4-.4.4-1 0-
-rounded-left-8x13" xmlns="http://www.w3.org/2000/svg"/>
        <path d="M7.7 12.7c-.4.4-.9.4-1.3 0L0 6.5 6.4.3c.4-.4.9-.3 1.3 0 .4.4.4 1 0 1.3l-5 4.9 5 4.9c.4.4.4 1 0 1.3z"/>
    </symbol>
    <symbol viewBox="0 0 6 9" id="arrow-rounded-right-6x9" xmlns="http://www.w3.org/2000/svg">
        <path d="M.4 8.8c-.4-.4-.5-1-.1-1.4l3-2.9-3-2.9C-.1 1.2-.1.5.4.2c.4-.3.9-.3 1.3.1L6 4.5 1.6 8.7c-.3.4-.9.4-1.2.1z"/>
    </symbol>
    <symbol viewBox="0 0 7 11" id="arrow-rounded-right-7x11" xmlns="http://www.w3.org/2000/svg">
        <path d="M.3 10.7c.4.4.9.4 1.3 0L7 5.5 1.6.3C1.2-.1.7 0 .3.3c-.4.4-.4 1 0 1.3l4 3.9-4 3.9c-.4.4-.4 1 0 1.3z"/>
    </symbol>
    <symbol viewBox="0 0 8 13" id="arrow-rounded-right-8x13" xmlns="http://www.w3.org/2000/svg">
        <path d="M.3 11.4l5-4.9-5-4.9C-.1 1.2-.1.7.3.3s.9-.4 1.3 0L8 6.5l-6.4 6.2c-.4.4-.9.3-1.3 0s-.4-.9 0-1.3z"/>
    </symbol>
    <symbol viewBox="0 0 13 8" id="arrow-rounded-up-13x8" xmlns="http://www.w3.org/2000/svg">
        <path d="M11.4 7.7l-4.9-5-4.9 5c-.4.4-.9.4-1.3 0s-.4-.9 0-1.3L6.5 0l6.2 6.4c.4.4.3.9 0 1.3s-.9.4-1.3 0z"/>
    </symbol>
    <symbol viewBox="0 0 16 16" id="cart-16" xmlns="http://www.w3.org/2000/svg">
        <path d="M14.2 10.3c-.1.4-.5.7-.9.7H4.8c-.5 0-.9-.3-1-.8L2.2 4c-.1-.6-.6-1-1.2-1H.4C.2 3 0 2.8 0 2.6V1.4c0-.2.2-.4.4-.4h1.4c1 0 1.9.7 2.1 1.7l1.5 6.1c.1.1.3.2.4.2h6.5c.1 0 .2-.1.3-.2l1.1-3.4c.1-.2 0-.4-.2-.4H7.4c-.2 0-.4-.2-.4-.4V3.4c0-.2.2-.4.4-.4H15c.6 0 1 .4 1 1v1l-1.8 5.3zM4.5 13c.8 0 1.5.7 1.5 1.5S5.3 16 4.5 16 3 15.3 3 14.5 3.7 13 4.5 13zm7 0c.8 0 1.5.7 1.5 1.5s-.7 1.5-1.5 1.5-1.5-.7-1.5-1.5.7-1.5 1.5-1.5z"/>
    </symbol>
    <symbol viewBox="0 0 20 20" id="cart-20" xmlns="http://www.w3.org/2000/svg">
        <circle cx="7" cy="17" r="2"/>
        <circle cx="15" cy="17" r="2"/>
        <path d="M20 4.4V5l-1.8 6.3c-.1.4-.5.7-1 .7H6.7c-.4 0-.8-.3-1-.7L3.3 3.9c-.2-.6-.7-.9-1.2-.9H.4C.2 3 0 2.8 0 2.6V1.4c0-.2.2-.4.4-.4h2.5c1 0 1.8.6 2.1 1.6l.1.4 2.3 6.8c0 .1.2.2.3.2h8.6c.1 0 .3-.1.3-.2l1.3-4.4c0-.2-.2-.4-.4-.4H9.4c-.2 0-.4-.2-.4-.4V3.4c0-.2.2-.4.4-.4h9.2c.8 0 1.4.6 1.4 1.4z"/>
    </symbol>
    <symbol viewBox="0 0 100 100" id="check-100" xmlns="http://www.w3.org/2000/svg">
        <path class="amst0"
              d="M50 100C22.4 100 0 77.6 0 50S22.4 0 50 0s50 22.4 50 50-22.4 50-50 50zm0-98C23.5 2 2 23.5 2 50s21.5 48 48 48 48-21.5 48-48S76.5 2 50 2zm-5.8 69L22.3 49.1l1.4-1.4 21.2 21.2 34.4-34.4 1.4 1.4L45.6 71c-.4.4-1 .4-1.4 0z"/>
    </symbol>
    <symbol viewBox="0 0 12 9" id="check-12x9" xmlns="http://www.w3.org/2000/svg">
        <path d="M12.002 1.396L4.461 9.002-.002 4.498l1.385-1.402 3.078 3.107 6.156-6.209 1.385 1.402z"/>
    </symbol>
    <symbol viewBox="0 0 9 7" id="check-9x7" xmlns="http://www.w3.org/2000/svg">
        <path d="M9.002 1.396L3.461 7.002-.002 3.498l1.385-1.402 2.078 2.103L7.617-.006l1.385 1.402z"/>
    </symbol>
    <symbol viewBox="0 0 16 16" id="compare-16" xmlns="http://www.w3.org/2000/svg">
        <path d="M9 15H7c-.6 0-1-.4-1-1V2c0-.6.4-1 1-1h2c.6 0 1 .4 1 1v12c0 .6-.4 1-1 1zM1 9h2c.6 0 1 .4 1 1v4c0 .6-.4 1-1 1H1c-.6 0-1-.4-1-1v-4c0-.6.4-1 1-1zM15 5h-2c-.6 0-1 .4-1 1v8c0 .6.4 1 1 1h2c.6 0 1-.4 1-1V6c0-.6-.4-1-1-1z"/>
    </symbol>
    <symbol viewBox="0 0 10 10" id="cross-10" xmlns="http://www.w3.org/2000/svg">
        <path d="M8.8 8.8c-.4.4-1 .4-1.4 0L5 6.4 2.6 8.8c-.4.4-1 .4-1.4 0-.4-.4-.4-1 0-1.4L3.6 5 1.2 2.6c-.4-.4-.4-1 0-1.4.4-.4 1-.4 1.4 0L5 3.6l2.4-2.4c.4-.4 1-.4 1.4 0 .4.4.4 1 0 1.4L6.4 5l2.4 2.4c.4.4.4 1 0 1.4z"/>
    </symbol>
    <symbol viewBox="0 0 12 12" id="cross-12" xmlns="http://www.w3.org/2000/svg">
        <path d="M10.8 10.8c-.4.4-1 .4-1.4 0L6 7.4l-3.4 3.4c-.4.4-1 .4-1.4 0-.4-.4-.4-1 0-1.4L4.6 6 1.2 2.6c-.4-.4-.4-1 0-1.4.4-.4 1-.4 1.4 0L6 4.6l3.4-3.4c.4-.4 1-.4 1.4 0 .4.4.4 1 0 1.4L7.4 6l3.4 3.4c.4.4.4 1 0 1.4z"/>
    </symbol>
    <symbol viewBox="0 0 20 20" id="cross-20" xmlns="http://www.w3.org/2000/svg">
        <path d="M17.71 17.71a.99.99 0 0 1-1.4 0L10 11.4l-6.31 6.31a.99.99 0 1 1-1.4-1.4L8.6 10 2.29 3.69a.99.99 0 1 1 1.4-1.4L10 8.6l6.31-6.31a.99.99 0 1 1 1.4 1.4L11.4 10l6.31 6.31a.99.99 0 0 1 0 1.4z"/>
    </symbol>
    <symbol viewBox="0 0 48 48" id="fi-24-hours-48" xmlns="http://www.w3.org/2000/svg">
        <path d="M46.218 18.168h-.262v-.869c0-1.175-1.211-1.766-2.453-1.766-.521 0-.985.094-1.366.263.015-.028 2.29-4.591 2.303-4.62.968-2.263-3.041-4.024-4.372-1.449l-5.184 10.166c-.35.648-.364 1.449.033 2.081a1.443 1.443 0 0 0-.668-.166H29.37c1.555-1.597 6.638-3.535 6.638-8.011 0-1.599-.676-3.02-1.903-4.002-1.088-.87-2.52-1.35-4.033-1.35-2.802 0-5.779 1.758-5.779 5.015 0 2.195 1.426 2.522 2.275 2.522 1.653 0 2.545-1.022 2.545-1.983 0-.485.117-.981.981-.981.906 0 1.003.623 1.003.891 0 2.284-7.074 4.474-7.074 8.399v2.178c0 1.147 1.319 1.781 2.23 1.781h7.995c1.426 0 2.332-2.195 1.348-3.669.265.137.569.21.898.21h4.552v1.678c0 1.049 1.01 1.781 2.455 1.781s2.455-.733 2.455-1.781v-1.678h.262c1.02 0 1.781-1.225 1.781-2.32.001-1.344-.748-2.32-1.781-2.32zm-11.977 6.693h-7.987c-.389 0-.802-.258-.824-.375v-2.179c0-3.056 7.074-5.046 7.074-8.399 0-1.107-.754-2.298-2.41-2.298-1.473 0-2.388.915-2.388 2.388 0 .236-.405.577-1.138.577-.492 0-.869-.082-.869-1.116 0-2.344 2.253-3.609 4.373-3.609 2.251 0 4.53 1.355 4.53 3.946 0 4.526-6.94 5.826-6.94 8.511v.202c0 .389.315.703.703.703h5.882c.091.015.354.314.354.802 0 .48-.252.811-.36.847zm11.953-3.459h-.941a.703.703 0 0 0-.703.703v2.381c0 .151-.44.375-1.048.375-.608 0-1.049-.224-1.049-.375v-2.381a.703.703 0 0 0-.703-.703h-5.255c-.518 0-.545-.528-.371-.846l.009-.018 5.186-10.17c.533-1.031 1.883-.238 1.884.097-.011.087.038-.035-4.014 8.092a.704.704 0 0 0 .629 1.017h1.932a.703.703 0 0 0 .703-.703v-1.572c0-.123.409-.36 1.051-.36.618 0 1.046.223 1.046.36v1.572c0 .389.315.703.703.703h.966c.196 0 .375.435.375.914-.001.463-.27.85-.4.914zm-5.148-3.418v.184h-.092l.092-.184zm0 0M36.976 36.602a19.307 19.307 0 0 0 5.202-8.354.704.704 0 0 0-1.344-.413 17.888 17.888 0 0 1-4.823 7.744.704.704 0 0 0 .965 1.023zm0 0M35.099 7.86a.703.703 0 0 0-.164-.981C29.684 3.131 23.098 2.38 17.381 4.38a.703.703 0 1 0 .465 1.327c5.23-1.83 11.346-1.199 16.272 2.316a.703.703 0 0 0 .981-.163zm0 0M25.247 43.573a3.861 3.861 0 0 0-2.807-.416c-.525.123-1.064.207-1.602.251a.703.703 0 1 0 .115 1.402c.606-.05 1.214-.145 1.807-.284a2.46 2.46 0 0 1 1.788.267 4.976 4.976 0 0 0 5.076-.064c3.605-2.207 3.212-1.964 3.359-2.061a4.978 4.978 0 0 0 1.519-6.755l-2.538-4.145a4.98 4.98 0 0 0-6.835-1.644l-3.235 1.981a4.95 4.95 0 0 0-2.371 4.214.245.245 0 0 1-.293.237 7.263 7.263 0 0 1-3.306-1.683 26.405 26.405 0 0 1-3.656-3.984.703.703 0 1 0-1.132.834 27.801 27.801 0 0 0 3.85 4.197 8.665 8.665 0 0 0 3.947 2.01 1.652 1.652 0 0 0 1.996-1.602 3.551 3.551 0 0 1 1.699-3.025l2.742-1.679 6.261 10.224-2.742 1.679a3.564 3.564 0 0 1-3.642.046zm1.375-12.596c1.54-.495 3.282.119 4.142 1.525l2.538 4.145c.865 1.413.611 3.242-.524 4.383l-6.156-10.053zm0 0"/>
        <path d="M.403 23.192c.998 3.783 2.422 7.199 4.232 10.155 1.81 2.956 4.206 5.777 7.121 8.386a12.246 12.246 0 0 0 5.717 2.868.704.704 0 1 0 .281-1.378 10.837 10.837 0 0 1-5.06-2.538c-2.813-2.517-5.121-5.233-6.859-8.072-1.739-2.839-3.108-6.13-4.071-9.78a10.899 10.899 0 0 1 2.228-9.803 3.863 3.863 0 0 0 .906-2.69 3.57 3.57 0 0 1 1.694-3.224l2.742-1.679 6.261 10.224-2.742 1.679a3.553 3.553 0 0 1-3.436.153 1.653 1.653 0 0 0-2.319 1.052 8.664 8.664 0 0 0-.015 4.47c.558 2.115 1.315 4.081 2.249 5.843a.704.704 0 0 0 1.243-.659c-.884-1.667-1.601-3.532-2.132-5.543a7.267 7.267 0 0 1 .012-3.744.245.245 0 0 1 .342-.156 4.954 4.954 0 0 0 4.789-.216l3.235-1.981a4.979 4.979 0 0 0 1.643-6.835l-2.538-4.145c-1.44-2.351-4.516-3.063-6.835-1.643L5.858 5.917a4.974 4.974 0 0 0-2.365 4.492 2.46 2.46 0 0 1-.575 1.714A12.305 12.305 0 0 0 .403 23.192zM14.728 6.314l2.538 4.145c.865 1.414.61 3.243-.524 4.383L10.586 4.788c1.534-.493 3.278.115 4.142 1.526zm0 0"/>
    </symbol>
    <symbol viewBox="-49 373 48 48" id="fi-free-delivery-48" xmlns="http://www.w3.org/2000/svg">
        <path d="M-4.36 399.901l-1.243-4.972a.752.752 0 0 0 .595-.735v-.802a3.16 3.16 0 0 0-3.157-3.157h-5.662v-1.653c0-.856-.697-1.553-1.553-1.553h-10.528l6.398-2.559a.752.752 0 0 0-.558-1.396l-5.238 2.095c1.596-1.024 3.175-2.151 3.777-2.94a3.505 3.505 0 0 0-.661-4.906 3.504 3.504 0 0 0-4.906.661c-.855 1.121-1.984 4.273-2.714 6.493-.73-2.22-1.859-5.371-2.714-6.493a3.504 3.504 0 0 0-4.906-.661 3.504 3.504 0 0 0-.661 4.906c.601.788 2.18 1.915 3.777 2.94l-5.238-2.095a.751.751 0 1 0-.558 1.396l6.398 2.559H-44.24c-.856 0-1.553.697-1.553 1.553v13.628a.752.752 0 0 0 1.504 0v-13.628a.05.05 0 0 1 .05-.05h28.86a.05.05 0 0 1 .05.05v13.629a.752.752 0 0 0 1.504 0v-.852H-4.955a2.459 2.459 0 0 1 2.335 1.704h-2.337a.752.752 0 0 0-.752.752v1.603a2.358 2.358 0 0 0 2.355 2.355h.852v3.307h-1.965c-.646-1.864-2.418-3.207-4.498-3.207s-3.853 1.343-4.498 3.207h-.362v-5.662a.752.752 0 0 0-1.504 0v5.662h-15.594a4.768 4.768 0 0 0-4.498-3.207 4.766 4.766 0 0 0-4.498 3.207h-4.32a.05.05 0 0 1-.05-.05v-1.653h3.257a.752.752 0 0 0 0-1.504h-7.215a.752.752 0 0 0 0 1.504h2.455v1.653c0 .856.697 1.553 1.553 1.553h4.06l-.001.05c0 2.625 2.135 4.76 4.76 4.76s4.76-2.135 4.76-4.76l-.001-.05h16.938l-.001.05c0 2.625 2.135 4.76 4.76 4.76s4.76-2.135 4.76-4.76l-.001-.05h2.457a.752.752 0 0 0 .752-.752v-8.017a3.97 3.97 0 0 0-3.364-3.913zm-21.541-21.005a1.999 1.999 0 0 1 2.799-.377 1.999 1.999 0 0 1 .377 2.799c-.26.341-1.14 1.189-4.104 3.031a82.05 82.05 0 0 1-1.689 1.02c.752-2.311 1.89-5.519 2.617-6.473zm-10.994 2.422a1.999 1.999 0 0 1 1.586-3.207c.602 0 1.198.271 1.59.785.727.953 1.866 4.162 2.617 6.474a86.756 86.756 0 0 1-1.689-1.02c-2.964-1.843-3.844-2.69-4.104-3.032zm23.068 13.627h6.678l1.228 4.91h-7.906v-4.91zm5.662-3.206c.912 0 1.653.742 1.653 1.653v.05h-7.315v-1.704h5.662zm-27.257 24.15c-1.796 0-3.257-1.461-3.257-3.257s1.461-3.257 3.257-3.257 3.257 1.461 3.257 3.257-1.461 3.257-3.257 3.257zm26.455 0c-1.796 0-3.257-1.461-3.257-3.257s1.461-3.257 3.257-3.257 3.257 1.461 3.257 3.257-1.461 3.257-3.257 3.257zm5.612-9.62a.853.853 0 0 1-.852-.852v-.852h1.704v1.704h-.852z"/>
        <path d="M-35.422 411.079c-.856 0-1.553.697-1.553 1.553s.697 1.553 1.553 1.553 1.553-.697 1.553-1.553-.696-1.553-1.553-1.553zM-8.967 411.079c-.856 0-1.553.697-1.553 1.553s.697 1.553 1.553 1.553 1.553-.697 1.553-1.553-.696-1.553-1.553-1.553zM-29.76 408.624c0 .415.337.752.752.752h11.223a.752.752 0 0 0 0-1.504h-11.223a.752.752 0 0 0-.752.752zM-46.645 406.169h9.62a.752.752 0 1 0 0-1.504h-9.62a.752.752 0 1 0 0 1.504zM-37.025 394.945a.752.752 0 1 0 0-1.504h-3.207a.752.752 0 0 0-.752.752v6.413a.752.752 0 0 0 1.504 0v-2.455h1.653a.752.752 0 0 0 0-1.504h-1.653v-1.704h2.455v.002zM-29.86 396.198a2.759 2.759 0 0 0-2.756-2.756h-2.004a.752.752 0 0 0-.752.752v6.413a.752.752 0 0 0 1.504 0v-1.653h1.251l1.38 2.07a.752.752 0 1 0 1.25-.833l-1.124-1.686a2.755 2.755 0 0 0 1.251-2.307zm-4.008-1.253h1.253c.691 0 1.253.562 1.253 1.253s-.562 1.253-1.253 1.253h-1.253v-2.506zM-25 394.945a.752.752 0 1 0 0-1.504h-3.207a.752.752 0 0 0-.752.752v6.413c0 .415.337.752.752.752H-25a.752.752 0 1 0 0-1.504h-2.455v-1.706c.017.001.033.003.05.003h1.603a.752.752 0 0 0 0-1.504h-1.603a.42.42 0 0 0-.05.003v-1.706H-25v.001zM-19.388 394.945a.752.752 0 1 0 0-1.504h-3.207a.752.752 0 0 0-.752.752v6.413c0 .415.337.752.752.752h3.207a.752.752 0 1 0 0-1.504h-2.455v-1.704h.852a.752.752 0 0 0 0-1.504h-.852v-1.704h2.455v.003z"/>
    </symbol>
    <symbol viewBox="-49 373 48 48" id="fi-payment-security-48" xmlns="http://www.w3.org/2000/svg">
        <path d="M-18.987 407.362h-27.49a.914.914 0 0 1-.913-.913v-25.772c0-.503.409-.913.913-.913H-6.96c.503 0 .913.409.913.913v11.168a.805.805 0 0 0 1.61 0v-11.168a2.526 2.526 0 0 0-2.523-2.523h-39.517A2.526 2.526 0 0 0-49 380.677v25.772a2.526 2.526 0 0 0 2.523 2.523h27.49a.805.805 0 0 0 0-1.61z"/>
        <path d="M-33.644 390.987v-5.154c0-.918-.747-1.664-1.664-1.664h-6.872c-.918 0-1.664.747-1.664 1.664v5.154c0 .918.747 1.664 1.664 1.664h6.872c.917 0 1.664-.747 1.664-1.664zm-1.611-5.155v5.154c0 .03-.024.054-.054.054h-3.49v-1.826h.913a.805.805 0 0 0 0-1.61h-.913v-1.826h3.49c.03.001.054.025.054.054zm-6.98 5.155v-5.154c0-.03.024-.054.054-.054h1.772v5.262h-1.772a.055.055 0 0 1-.054-.054zM-16.837 384.085a4.667 4.667 0 0 0-2.579-.776c-2.576 0-4.671 2.095-4.671 4.671s2.095 4.671 4.671 4.671c.951 0 1.837-.287 2.576-.777a4.672 4.672 0 0 0 2.578.777c2.576 0 4.671-2.095 4.671-4.671s-2.095-4.671-4.671-4.671c-.951 0-1.836.286-2.575.776zm-5.64 3.895a3.063 3.063 0 0 1 4.431-2.735 4.644 4.644 0 0 0-.888 2.735c0 .993.316 1.947.886 2.736a3.043 3.043 0 0 1-1.37.325 3.065 3.065 0 0 1-3.059-3.061zm11.276 0a3.063 3.063 0 0 1-4.431 2.735c.558-.77.888-1.714.888-2.735a.805.805 0 0 0-1.61 0c0 .607-.178 1.172-.484 1.648a3.053 3.053 0 0 1-.483-1.648c0-1.688 1.373-3.06 3.06-3.06s3.06 1.372 3.06 3.06zM-43.04 397.054a.805.805 0 0 0 0 1.61h6.872a.805.805 0 0 0 0-1.61h-6.872zM-18.128 402.208H-43.04a.805.805 0 0 0 0 1.61h24.913a.805.805 0 1 0-.001-1.61zM-32.732 397.054a.805.805 0 0 0 0 1.61h6.872a.805.805 0 0 0 0-1.61h-6.872zM-17.268 397.054h-5.154a.805.805 0 0 0 0 1.61h5.154a.805.805 0 0 0 0-1.61zM-2.718 403.2v-3.622c0-3.286-2.674-5.96-5.96-5.96s-5.96 2.673-5.96 5.96v3.622a2.527 2.527 0 0 0-1.718 2.391v7.732a2.526 2.526 0 0 0 2.523 2.523h10.309a2.526 2.526 0 0 0 2.523-2.523v-7.732a2.526 2.526 0 0 0-1.717-2.391zm-5.96-7.972a4.354 4.354 0 0 1 4.349 4.349v3.49h-8.698v-3.49a4.354 4.354 0 0 1 4.349-4.349zm6.067 18.094a.914.914 0 0 1-.913.913h-10.309a.914.914 0 0 1-.913-.913v-7.732c0-.503.409-.913.913-.913h10.309c.503 0 .913.409.913.913v7.732z"/>
        <path d="M-8.678 406.503a2.096 2.096 0 0 0-2.094 2.094c0 .869.533 1.616 1.289 1.932v1.074a.805.805 0 0 0 1.61 0v-1.074a2.097 2.097 0 0 0 1.289-1.932 2.097 2.097 0 0 0-2.094-2.094zm0 1.611a.484.484 0 0 1 0 .966.484.484 0 0 1 0-.966z"/>
    </symbol>
    <symbol viewBox="-49 373 48 48" id="fi-tag-48" xmlns="http://www.w3.org/2000/svg">
        <path d="M-1 376.269a3.236 3.236 0 0 0-.952-2.317A3.224 3.224 0 0 0-4.269 373a3.278 3.278 0 0 0-2.317.967c-.262.262-.74.829-1.001 1.144a.777.777 0 1 0 1.197.993c.409-.493.747-.881.904-1.038a1.73 1.73 0 0 1 1.223-.512h.007c.456 0 .883.176 1.203.497.322.322.499.752.497 1.211a1.73 1.73 0 0 1-.512 1.223c-.293.294-1.302 1.094-2.748 2.104a4.927 4.927 0 0 0-4.253-2.447h-11.387a5.72 5.72 0 0 0-4.069 1.685l-22.762 22.762a2.421 2.421 0 0 0-.714 1.723c0 .651.254 1.263.714 1.723l15.25 15.25c.46.46 1.072.714 1.723.714s1.263-.254 1.723-.714l22.762-22.762a5.716 5.716 0 0 0 1.685-4.069v-11.387c0-.336-.034-.664-.099-.982 1.645-1.132 2.853-2.079 3.275-2.501A3.267 3.267 0 0 0-1 376.269zm-5.698 5.799v11.387a4.17 4.17 0 0 1-1.23 2.969l-22.762 22.762a.881.881 0 0 1-1.246 0l-15.25-15.25a.881.881 0 0 1 0-1.246l22.762-22.762a4.173 4.173 0 0 1 2.969-1.23h11.387c1.279 0 2.393.716 2.964 1.768a63.534 63.534 0 0 1-3.038 1.891 3.27 3.27 0 0 0-4.724-.11 3.27 3.27 0 0 0 0 4.619 3.255 3.255 0 0 0 2.31.955c.836 0 1.673-.318 2.31-.955a3.266 3.266 0 0 0 .847-3.142 65.078 65.078 0 0 0 2.701-1.663v.007zm-6.553 2.838a.777.777 0 0 0 1.044.345c.456-.229.91-.468 1.36-.712a1.71 1.71 0 1 1-2.919-1.193 1.708 1.708 0 0 1 2.198-.185c-.44.239-.887.474-1.337.7a.778.778 0 0 0-.346 1.045z"/>
        <path d="M-32.679 398.814a.777.777 0 1 0-1.1 1.1l2.383 2.383-3.006 3.006-2.383-2.383a.777.777 0 1 0-1.1 1.1l5.865 5.865a.775.775 0 0 0 1.1 0 .777.777 0 0 0 0-1.1l-2.383-2.383 3.006-3.006 2.383 2.383a.775.775 0 0 0 1.1 0 .777.777 0 0 0 0-1.1l-5.865-5.865zM-24.174 394.415a3.685 3.685 0 0 0-5.205 0 3.685 3.685 0 0 0 0 5.205l1.76 1.76c.718.718 1.66 1.076 2.603 1.076s1.885-.359 2.603-1.076a3.685 3.685 0 0 0 0-5.205l-1.761-1.76zm.66 5.865a2.128 2.128 0 0 1-3.006 0l-1.76-1.76a2.128 2.128 0 0 1 0-3.006c.414-.414.959-.622 1.503-.622s1.089.207 1.503.622l1.76 1.76a2.13 2.13 0 0 1 0 3.006zM-21.572 388.806l1.796-1.796a.777.777 0 1 0-1.1-1.1l-4.692 4.692a.777.777 0 1 0 1.1 1.1l1.796-1.796 5.315 5.315a.775.775 0 0 0 1.1 0 .777.777 0 0 0 0-1.1l-5.315-5.315z"/>
    </symbol>
    <symbol viewBox="0 0 16 16" id="filters-16" xmlns="http://www.w3.org/2000/svg">
        <path d="M7 14v-2h9v2H7zm7-7h2v2h-2V7zm-1.5-1c.3 0 .5.2.5.5v3c0 .3-.2.5-.5.5h-2c-.3 0-.5-.2-.5-.5v-3c0-.3.2-.5.5-.5h2zM7 2h9v2H7V2zM5.5 5h-2c-.3 0-.5-.2-.5-.5v-3c0-.3.2-.5.5-.5h2c.3 0 .5.2.5.5v3c0 .3-.2.5-.5.5zM0 2h2v2H0V2zm9 7H0V7h9v2zm-7 5H0v-2h2v2zm1.5-3h2c.3 0 .5.2.5.5v3c0 .3-.2.5-.5.5h-2c-.3 0-.5-.2-.5-.5v-3c0-.3.2-.5.5-.5z"/>
    </symbol>
    <symbol viewBox="0 0 20 20" id="heart-20" xmlns="http://www.w3.org/2000/svg">
        <path d="M14 3c2.2 0 4 1.8 4 4 0 4-5.2 10-8 10S2 11 2 7c0-2.2 1.8-4 4-4 1 0 1.9.4 2.7 1L10 5.2 11.3 4c.8-.6 1.7-1 2.7-1m0-2c-1.5 0-2.9.6-4 1.5C8.9 1.6 7.5 1 6 1 2.7 1 0 3.7 0 7c0 5 6 12 10 12s10-7 10-12c0-3.3-2.7-6-6-6z"/>
    </symbol>
    <symbol viewBox="0 0 16 16" id="layout-grid-16x16" xmlns="http://www.w3.org/2000/svg">
        <path d="M15.2 16H9.8a.8.8 0 0 1-.8-.8V9.8a.8.8 0 0 1 .8-.8h5.4a.8.8 0 0 1 .8.8v5.4a.8.8 0 0 1-.8.8zm0-9H9.8a.8.8 0 0 1-.8-.8V.8a.8.8 0 0 1 .8-.8h5.4a.8.8 0 0 1 .8.8v5.4a.8.8 0 0 1-.8.8zm-9 9H.8a.8.8 0 0 1-.8-.8V9.8A.8.8 0 0 1 .8 9h5.4a.8.8 0 0 1 .8.8v5.4a.8.8 0 0 1-.8.8zm0-9H.8a.8.8 0 0 1-.8-.8V.8A.8.8 0 0 1 .8 0h5.4a.8.8 0 0 1 .8.8v5.4a.8.8 0 0 1-.8.8z"/>
    </symbol>
    <symbol viewBox="0 0 16 16" id="layout-grid-with-details-16x16" xmlns="http://www.w3.org/2000/svg">
        <path d="M16 .8v14.4c0 .4-.4.8-.8.8H9.8c-.4 0-.8-.4-.8-.8V.8c0-.4.4-.8.8-.8h5.4c.4 0 .8.4.8.8zm-9 0v14.4c0 .4-.4.8-.8.8H.8c-.4 0-.8-.4-.8-.8V.8C0 .4.4 0 .8 0h5.4c.4 0 .8.4.8.8z"/>
    </symbol>
    <symbol viewBox="0 0 16 16" id="layout-list-16x16" xmlns="http://www.w3.org/2000/svg">
        <path d="M15.2 16H.8a.8.8 0 0 1-.8-.8V9.8A.8.8 0 0 1 .8 9h14.4a.8.8 0 0 1 .8.8v5.4a.8.8 0 0 1-.8.8zm0-9H.8a.8.8 0 0 1-.8-.8V.8A.8.8 0 0 1 .8 0h14.4a.8.8 0 0 1 .8.8v5.4a.8.8 0 0 1-.8.8z"/>
    </symbol>
    <symbol viewBox="0 0 18 14" id="menu-18x14" xmlns="http://www.w3.org/2000/svg">
        <path d="M0 8V6h18v2H0zm0-8h18v2H0V0zm14 14H0v-2h14v2z"/>
    </symbol>
    <symbol viewBox="0 0 20 20" id="person-20" xmlns="http://www.w3.org/2000/svg">
        <path d="M13.7 10.7C15.1 9.6 16 7.9 16 6c0-3.3-2.7-6-6-6S4 2.7 4 6c0 1.9.9 3.6 2.3 4.7C2.6 12.2 0 15.8 0 20h2c0-4.4 3.6-8 8-8s8 3.6 8 8h2c0-4.2-2.6-7.8-6.3-9.3zM6 6c0-2.2 1.8-4 4-4s4 1.8 4 4-1.8 4-4 4-4-1.8-4-4z"/>
    </symbol>
    <symbol viewBox="0 0 16 16" id="quickview-16" xmlns="http://www.w3.org/2000/svg">
        <path d="M14 15h-4v-2h3v-3h2v4c0 .6-.4 1-1 1zM13 3h-3V1h4c.6 0 1 .4 1 1v4h-2V3zM6 3H3v3H1V2c0-.6.4-1 1-1h4v2zM3 13h3v2H2c-.6 0-1-.4-1-1v-4h2v3z"/>
    </symbol>
    <symbol viewBox="0 0 20 20" id="search-20" xmlns="http://www.w3.org/2000/svg">
        <path d="M19.2 17.8s-.2.5-.5.8c-.4.4-.9.6-.9.6s-.9.7-2.8-1.6c-1.1-1.4-2.2-2.8-3.1-3.9-1 .8-2.4 1.3-3.9 1.3-3.9 0-7-3.1-7-7s3.1-7 7-7 7 3.1 7 7c0 1.5-.5 2.9-1.3 4 1.1.8 2.5 2 4 3.1 2.3 1.7 1.5 2.7 1.5 2.7zM8 3C5.2 3 3 5.2 3 8s2.2 5 5 5 5-2.2 5-5-2.2-5-5-5z"/>
    </symbol>
    <symbol viewBox="0 0 13 12" id="star-normal" xmlns="http://www.w3.org/2000/svg">
        <path d="M7 .3L9 4h3.5c.4.1.6.8.3 1.1L10 7.4l1 4c.1.4-.4.8-.8.6l-3.7-2-3.7 1.9c-.4.2-.9-.1-.8-.6l1-4L.2 5.1C-.2 4.8 0 4.1.5 4H4L6 .3c.2-.4.8-.4 1 0z"/>
    </symbol>
    <symbol viewBox="0 0 13 12" id="star-normal-stroke" xmlns="http://www.w3.org/2000/svg">
        <path d="M6.5 1.5l1.6 3 .3.5h3l-2 1.6-.5.4.1.6.7 3L7 9.1l-.5-.2-.5.2-2.8 1.5.7-3 .2-.6-.5-.4-2-1.6h3l.3-.5 1.6-3m0-1.5c-.2 0-.4.1-.5.3L4 4H.5c-.5.1-.7.8-.3 1.1L3 7.4l-1 4c-.1.3.2.6.5.6.1 0 .2 0 .3-.1L6.5 10l3.7 1.9c.1 0 .2.1.3.1.3 0 .6-.3.5-.6l-1-4 2.8-2.3c.3-.3.1-1-.3-1.1H9L7 .3C6.9.1 6.7 0 6.5 0z"/>
    </symbol>
    <symbol viewBox="0 0 16 16" id="wishlist-16" xmlns="http://www.w3.org/2000/svg">
        <path d="M13.9 8.4l-5.4 5.4c-.3.3-.7.3-1 0L2.1 8.4C.6 6.9.6 4.6 2.1 3.1 2.8 2.4 3.8 2 4.8 2s1.9.4 2.6 1.1l.6.6.6-.6c.7-.7 1.7-1.1 2.7-1.1 1 0 1.9.4 2.6 1.1 1.5 1.5 1.5 3.8 0 5.3z"/>
    </symbol>
    <symbol viewBox="0 0 24 24" id="zoom-in-24" xmlns="http://www.w3.org/2000/svg">
        <path d="M15 18c-2 0-3.8-.6-5.2-1.7-1 1.3-2.1 2.8-3.5 4.6-2.2 2.8-3.4 1.9-3.4 1.9s-.6-.3-1.1-.7c-.4-.4-.7-1-.7-1S.2 19.9 3 17.8c1.8-1.4 3.3-2.5 4.6-3.5C6.6 12.8 6 11 6 9c0-5 4-9 9-9s9 4 9 9-4 9-9 9zm0-16c-3.9 0-7 3.1-7 7s3.1 7 7 7 7-3.1 7-7-3.1-7-7-7zm1 11h-2v-3h-3V8h3V5h2v3h3v2h-3v3z"/>
    </symbol>
    <symbol id="flag-icons-ua" viewBox="0 0 640 480" xmlns="http://www.w3.org/2000/svg">
        <g fill-rule="evenodd" stroke-width="1pt">
            <path fill="gold" d="M0 0h640v480H0z"/>
            <path fill="#0057b8" d="M0 0h640v240H0z"/>
        </g>
    </symbol>
    <symbol id="delivery-48" viewBox="0 0 512 512">
        <g transform="translate(0,512) scale(0.1,-0.1)">
            <path stroke="null" id="svg_2"
                  d="m1917.39237,4727.85025c-16.66197,-25.175 -19.04225,-88.77501 -19.04225,-424.00005l0,-394.85004l-535.56324,0l-535.56324,0l-330.85907,-352.45004c-180.90136,-193.45002 -343.95061,-374.97504 -361.80272,-405.45005c-17.85211,-29.15 -45.22534,-86.12501 -59.50703,-127.20001l-27.37323,-75.52501l-3.57042,-940.75011c-2.38028,-745.97508 1.19014,-947.37511 13.09155,-973.87511l15.47183,-33.125l321.33794,-3.975l320.1478,-2.65l20.23239,-86.12501c34.51408,-144.42502 78.54928,-230.55003 176.1408,-339.20004c135.67602,-152.37502 261.83092,-210.67502 458.20411,-210.67502c196.37319,0 322.52808,58.30001 458.20411,210.67502c97.59152,108.65001 141.62672,194.77502 176.1408,339.20004l20.23239,86.12501l535.56324,0l535.56324,0l14.28169,-78.17501c41.65492,-246.45003 235.64783,-471.70005 461.77453,-537.95006c90.45068,-25.175 254.69007,-25.175 345.14075,0c226.1267,66.25001 420.11961,291.50003 461.77453,537.95006l14.28169,78.17501l323.71823,0l324.90837,0l17.85211,31.8c16.66197,27.825 19.04225,235.85003 26.18309,1847.05021c7.14084,1689.37519 5.9507,1817.90021 -13.09155,1849.70021l-19.04225,34.45l-1559.0841,0l-1557.89396,0l-17.85211,-29.15zm3003.91471,-1295.85015l0,-1152.75013l-1428.16864,0l-1428.16864,0l0,1152.75013l0,1152.75013l1428.16864,0l1428.16864,0l0,-1152.75013zm-3022.95695,-482.30005c0,-755.25009 1.19014,-788.37509 22.61267,-817.52509l22.61267,-31.8l1482.9151,-3.975l1482.9151,-2.65l0,-463.75005l0,-463.75005l-260.64078,0l-259.45064,0l-8.33098,64.92501c-4.76056,37.1 -29.75351,115.27501 -57.12675,174.90002c-86.88026,193.45002 -247.54923,335.22504 -436.78158,382.92504c-90.45068,23.85 -274.92246,10.6 -364.183,-25.175c-96.40138,-37.1 -224.93656,-137.80002 -283.25345,-218.62502c-61.88731,-87.45001 -124.96476,-235.85003 -134.48588,-315.35004l-8.33098,-63.60001l-537.94352,0l-537.94352,0l-14.28169,71.55001c-51.17604,258.37503 -242.78867,478.32505 -473.67593,544.57506c-86.88026,25.175 -241.59853,25.175 -328.47879,0c-230.88726,-67.57501 -424.88017,-290.17503 -472.48579,-544.57506l-13.09155,-71.55001l-255.88021,0l-254.69007,0l0,851.9751c0,918.2251 1.19014,931.47511 63.07745,1025.55012c15.47183,23.85 164.23939,188.15002 330.85907,367.02504l302.2957,324.62504l497.47874,0l496.2886,1.325l0,-787.05009zm-314.1971,-1385.95016c184.47178,-100.70001 298.72527,-343.17504 266.59148,-567.10006c-42.84506,-286.20003 -304.67598,-502.17506 -552.22521,-454.47505c-265.40134,51.67501 -451.06326,329.92504 -410.59848,613.47507c52.36618,365.70004 399.88722,569.75006 696.23221,408.10005zm2352.90783,10.6c97.59152,-50.35001 159.47883,-108.65001 210.65487,-198.75002c128.53518,-219.95002 102.35209,-494.22506 -61.88731,-677.07508c-247.54923,-275.60003 -640.29561,-189.47502 -791.44345,170.92502c-28.56337,67.57501 -33.32393,94.07501 -33.32393,204.05002c1.19014,145.75002 24.99295,230.55003 97.59152,336.55004c54.74646,78.17501 117.82391,129.85001 211.84501,173.57502c61.88731,29.15 85.69012,33.125 184.47178,30.475c94.0211,-3.975 124.96476,-10.6 182.0915,-39.75z"/>
            <path stroke="null" id="svg_3"
                  d="m2430.34294,4044.15017c-11.90141,-13.25 -20.23239,-46.37501 -20.23239,-72.87501c0,-94.07501 -65.45773,-88.77501 1074.6969,-88.77501c1027.09128,0 1055.65465,1.325 1081.83774,45.05001c16.66197,27.825 9.52112,87.45001 -14.28169,113.95001c-23.80281,26.5 -39.27464,26.5 -1062.7955,26.5c-992.5772,0 -1041.37297,-1.325 -1059.22507,-23.85z"/>
            <path stroke="null" id="svg_4"
                  d="m2436.29364,3503.55011c-19.04225,-14.575 -26.18309,-33.125 -26.18309,-71.55001c0,-99.37501 -71.40843,-92.75001 1085.40817,-92.75001c1017.57016,0 1033.04198,0 1056.84479,26.5c13.09155,14.575 23.80281,43.725 23.80281,66.25001c0,22.525 -10.71126,51.67501 -23.80281,66.25001c-23.80281,26.5 -39.27464,26.5 -1056.84479,26.5c-915.21807,0 -1035.42226,-2.65 -1059.22507,-21.2z"/>
            <path stroke="null" id="svg_5"
                  d="m2445.81477,2964.27505c-38.0845,-21.2 -47.60562,-104.67501 -16.66197,-143.10002c20.23239,-23.85 53.55632,-25.175 1060.41522,-25.175c1023.52086,0 1038.99269,0 1062.7955,26.5c23.80281,26.5 30.94365,86.12501 14.28169,113.95001c-26.18309,43.725 -54.74646,45.05001 -1075.88704,45.05001c-791.44345,0 -1022.33072,-3.975 -1044.94339,-17.225z"/>
            <path stroke="null" id="svg_6"
                  d="m790.32929,3283.60008c-124.96476,-132.50001 -230.88726,-251.75003 -238.02811,-263.67503c-5.9507,-13.25 -10.71126,-124.55001 -10.71126,-247.77503c0,-206.70002 2.38028,-226.57503 24.99295,-259.70003l23.80281,-34.45l556.98577,0c524.85198,0 558.17591,1.325 576.02802,23.85c17.85211,22.525 20.23239,75.52501 20.23239,496.87506c0,455.80005 -1.19014,474.35005 -23.80281,499.52506c-22.61267,25.175 -39.27464,26.5 -362.99286,26.5l-340.38019,0l-226.1267,-241.15003zm798.5843,-282.22503l0,-337.87504l-440.352,0l-440.352,0l0,136.47502l-1.19014,135.15002l188.0422,201.40002l188.0422,201.40002l253.49993,1.325l252.30979,0l0,-337.87504z"/>
            <path stroke="null" id="svg_7"
                  d="m1228.301,2255.39997c-24.99295,-30.475 -26.18309,-94.07501 -3.57042,-129.85001c15.47183,-22.525 32.13379,-25.175 141.62672,-25.175c105.92251,0 128.53518,3.975 149.95771,25.175c29.75351,30.475 32.13379,83.47501 5.9507,124.55001c-16.66197,26.5 -27.37323,29.15 -146.38729,29.15c-109.49293,0 -130.91546,-3.975 -147.57743,-23.85z"/>
            <path stroke="null" id="svg_8"
                  d="m1272.3362,1431.24987c-129.72532,-45.05001 -230.88726,-194.77502 -230.88726,-343.17504c0,-109.97501 29.75351,-194.77502 95.21124,-267.65003c167.80982,-186.82502 465.34495,-115.27501 541.51394,132.50001c72.59857,237.17503 -69.02815,474.35005 -290.39429,486.27505c-42.84506,2.65 -95.21124,-1.325 -115.44363,-7.95zm174.95066,-192.12502c47.60562,-27.825 82.1197,-94.07501 82.1197,-159.00002c0,-100.70001 -70.21829,-178.87502 -160.66897,-178.87502c-122.58447,0 -198.75347,144.42502 -142.81686,266.32503c38.0845,82.15001 144.007,115.27501 221.36614,71.55001z"/>
            <path stroke="null" id="svg_9"
                  d="m3632.38488,1425.94987c-85.69012,-35.775 -164.23939,-121.90001 -198.75347,-218.62502c-21.42253,-58.30001 -21.42253,-192.12502 -1.19014,-258.37503c9.52112,-29.15 38.0845,-79.50001 65.45773,-111.30001c134.48588,-162.97502 357.04216,-164.30002 486.76748,-2.65c64.26759,78.17501 84.49998,135.15002 83.30984,245.12503c0,143.10002 -54.74646,246.45003 -166.61967,320.65004c-65.45773,42.4 -197.56333,55.65001 -268.97176,25.175zm195.18305,-197.42502c94.0211,-68.90001 103.54223,-186.82502 22.61267,-276.92503c-40.46478,-45.05001 -51.17604,-50.35001 -107.11265,-50.35001c-55.93661,0 -66.64787,5.3 -107.11265,50.35001c-28.56337,31.8 -48.79576,68.90001 -53.55632,99.37501c-16.66197,98.05001 67.83801,208.02502 160.66897,208.02502c26.18309,0 60.69717,-11.925 84.49998,-30.475z"/>
        </g>
    </symbol>
    <symbol id="tell-48" viewBox="0 0 128 128">
        <g transform="translate(0,128) scale(0.1,-0.1)">
            <path d="M715 1266 c-73 -33 -115 -110 -115 -211 0 -63 1 -65 25 -65 24 0 25
2 25 65 0 78 16 113 67 152 36 28 37 28 188 28 151 0 152 0 188 -28 60 -46 67
-68 67 -227 0 -150 -6 -174 -53 -218 -13 -13 -48 -29 -76 -37 -28 -7 -83 -32
-122 -54 -39 -23 -73 -41 -75 -41 -2 0 -4 20 -4 44 l0 44 -45 6 c-49 8 -97 42
-120 87 -9 16 -15 56 -15 94 0 63 -1 65 -25 65 -24 0 -25 -2 -25 -67 0 -82 22
-135 73 -180 20 -18 52 -35 71 -39 l35 -6 3 -69 3 -68 119 69 c66 37 137 71
157 74 48 8 106 57 130 111 27 59 27 312 0 370 -22 47 -64 89 -104 104 -42 16
-335 13 -372 -3z"/>
            <path d="M869 1160 c-25 -15 -32 -58 -14 -86 36 -55 125 -14 109 50 -10 41
-57 58 -95 36z m46 -50 c3 -5 -1 -10 -10 -10 -9 0 -13 5 -10 10 3 6 8 10 10
10 2 0 7 -4 10 -10z"/>
            <path d="M1040 1150 c0 -15 7 -20 25 -20 18 0 25 5 25 20 0 15 -7 20 -25 20
-18 0 -25 -5 -25 -20z"/>
            <path d="M162 1026 c-65 -70 -92 -130 -92 -205 0 -81 35 -133 189 -286 134
-132 142 -139 158 -122 17 16 10 24 -124 160 -148 148 -173 185 -173 256 0 49
12 82 47 127 l26 35 103 -102 102 -101 -25 -37 c-46 -67 -37 -83 170 -288 177
-177 184 -183 224 -183 26 0 50 8 68 21 l27 22 99 -99 c54 -54 99 -102 99
-105 0 -15 -93 -68 -130 -74 -80 -14 -122 11 -275 165 -77 77 -145 140 -151
140 -6 0 -16 -6 -22 -13 -15 -17 266 -299 320 -322 21 -8 66 -15 101 -15 82 0
147 32 216 105 75 79 73 87 -57 217 -131 131 -142 134 -217 58 -34 -34 -57
-50 -75 -50 -20 0 -64 38 -198 173 -95 95 -172 181 -172 190 0 10 25 44 55 77
30 33 55 65 55 70 0 27 -35 72 -123 158 -83 81 -99 92 -130 92 -30 0 -43 -9
-95 -64z m201 -84 c79 -80 96 -101 85 -110 -11 -9 -35 10 -116 91 -94 94 -109
117 -78 117 6 0 55 -44 109 -98z m662 -662 c79 -79 97 -102 87 -112 -10 -10
-33 8 -114 89 -88 88 -111 123 -80 123 4 0 52 -45 107 -100z"/>
            <path d="M810 995 c0 -16 6 -25 15 -25 12 0 15 -14 15 -70 0 -56 -3 -70 -15
-70 -9 0 -15 -9 -15 -25 0 -25 0 -25 95 -25 95 0 95 0 95 25 0 16 -6 25 -15
25 -12 0 -15 17 -15 95 l0 95 -80 0 c-79 0 -80 0 -80 -25z m110 -95 c0 -56 -3
-70 -15 -70 -12 0 -15 14 -15 70 0 56 3 70 15 70 12 0 15 -14 15 -70z"/>
            <path d="M196 922 c-15 -18 -15 -20 2 -35 14 -13 21 -14 30 -5 16 16 15 33 -1
47 -11 8 -18 7 -31 -7z"/>
            <path d="M430 395 c-10 -12 -10 -18 0 -30 16 -19 39 -19 46 0 6 15 -11 45 -26
45 -4 0 -13 -7 -20 -15z"/>
        </g>
    </symbol>
    <symbol id="ukrposhta" viewBox="0 0 20 20">
        <g transform="translate(-3.8830048e-6,-276.65369)">
            <path
                    d="m 13.369594,288.33412 c -5.29e-4,-1.3e-4 -6.736523,-1.52446 -6.736523,-1.52446 -2.0077575,-0.45436 -3.2672403,-2.45037 -2.8130169,-4.45826 0.454488,-2.00789 2.4505047,-3.26711 4.4582622,-2.81289 2.0078897,0.45439 3.2672407,2.45038 2.8129837,4.45813 -0.227608,1.00525 -0.841672,1.82212 -1.6501399,2.33101 -1.323e-4,0 -0.00209,0.002 -0.00284,0.002 -0.023778,0.0171 -0.039158,0.0448 -0.039158,0.0761 0,0.0438 0.030229,0.0806 0.071074,0.0904 1.323e-4,1.3e-4 2.9965719,0.67773 2.9971009,0.67773 0.07131,0.0162 0.145322,-0.0113 0.189144,-0.0692 2.32e-4,-5.3e-4 1.32e-4,-1.3e-4 1.32e-4,-1.3e-4 0.8255,-1.09234 1.321363,-2.4553 1.321363,-3.9295 0,-3.47173 -2.712376,-6.30892 -6.1336045,-6.51043 -0.030498,-0.002 -0.2159049,-0.009 -0.278545,-0.01 -1.5147727,-0.0238 -3.0506128,0.41055 -4.3861765,1.34588 -3.37279053,2.36161 -4.1922501,7.01004 -1.8308934,10.38272 l 5.993034,8.55903 c 0.025598,0.0349 0.066807,0.0575 0.1130432,0.0575 0.046633,0 0.087974,-0.023 0.1134401,-0.0581 0,0 5.8850281,-8.39266 5.8855571,-8.39342 0.01498,-0.0222 0.02391,-0.0492 0.02391,-0.0781 0,-0.0664 -0.04614,-0.12197 -0.108148,-0.13616"
                    style="fill:#fabc26;fill-opacity:1;fill-rule:nonzero;stroke:none;stroke-width:0.03307291"
                    id="path14"/>
        </g>
    </symbol>
    <symbol id="novaposhta" viewBox="0 0 45 45">
        <g transform="translate(0.000000,45.000000) scale(0.100000,-0.100000)"
           fill="#ed0b21" stroke="none">
            <path d="M177 410 l-42 -39 28 -1 c26 0 27 -2 27 -50 l0 -50 34 0 c34 0 35 1
38 47 3 40 6 48 27 53 23 5 22 6 -18 43 -22 20 -43 37 -46 37 -3 0 -25 -18
-48 -40z"/>
            <path d="M36 270 c-20 -22 -36 -44 -36 -48 0 -4 18 -26 40 -47 l40 -39 0 87
c0 48 -2 87 -4 87 -2 0 -20 -18 -40 -40z"/>
            <path d="M370 220 l0 -94 40 39 c22 21 40 46 40 55 0 9 -18 34 -40 55 l-40 39
0 -94z"/>
            <path d="M190 125 c0 -42 -2 -45 -27 -45 l-27 0 39 -40 c21 -22 46 -40 55 -40
9 0 34 18 55 40 l39 40 -33 0 c-33 0 -33 0 -29 45 l3 45 -37 0 -38 0 0 -45z"/>
        </g>
    </symbol>
    <symbol id="viber" viewBox="0 0 631.99 666.43">
        <path fill="#0000ff"
              d="M560.65,65C544.09,49.72,477.17,1.14,328.11.48c0,0-175.78-10.6-261.47,68C18.94,116.19,2.16,186,.39,272.55S-3.67,521.3,152.68,565.28l.15,0-.1,67.11s-1,27.17,16.89,32.71c21.64,6.72,34.34-13.93,55-36.19,11.34-12.22,27-30.17,38.8-43.89,106.93,9,189.17-11.57,198.51-14.61,21.59-7,143.76-22.66,163.63-184.84C646.07,218.4,615.64,112.66,560.65,65Zm18.12,308.58C562,509,462.91,517.51,444.64,523.37c-7.77,2.5-80,20.47-170.83,14.54,0,0-67.68,81.65-88.82,102.88-3.3,3.32-7.18,4.66-9.77,4-3.64-.89-4.64-5.2-4.6-11.5.06-9,.58-111.52.58-111.52s-.08,0,0,0C38.94,485.05,46.65,347,48.15,274.71S63.23,143.2,103.57,103.37c72.48-65.65,221.79-55.84,221.79-55.84,126.09.55,186.51,38.52,200.52,51.24C572.4,138.6,596.1,233.91,578.77,373.54Z"/>
        <path fill="#0000ff"
              d="M389.47,277.2a8.42,8.42,0,0,1-8.41-8c-1.43-28.61-14.91-42.62-42.42-44.1a8.43,8.43,0,0,1,.91-16.83c36.3,2,56.48,22.73,58.34,60.09a8.43,8.43,0,0,1-8,8.84Z"/>
        <path fill="#0000ff"
              d="M432.73,291.7h-.2a8.43,8.43,0,0,1-8.23-8.62c.65-28.81-7.58-52.14-25.16-71.32s-41.53-29.58-73.46-31.92A8.43,8.43,0,1,1,326.91,163c35.93,2.63,64.41,15.2,84.66,37.35s30.32,50.17,29.58,83.08A8.44,8.44,0,0,1,432.73,291.7Z"/>
        <path fill="#0000ff"
              d="M477,309a8.44,8.44,0,0,1-8.43-8.37c-.39-51.53-15.23-90.89-45.37-120.31-29.78-29-67.4-43.88-111.83-44.2a8.43,8.43,0,0,1,.06-16.86h.07c48.92.36,90.46,16.84,123.47,49S485,245,485.44,300.53a8.43,8.43,0,0,1-8.36,8.49Z"/>
        <path fill="#0000ff"
              d="M340.76,381.68s11.85,1,18.23-6.86l12.44-15.65c6-7.76,20.48-12.71,34.66-4.81A366.67,366.67,0,0,1,437,374.1c9.41,6.92,28.68,23,28.74,23,9.18,7.75,11.3,19.13,5.05,31.13,0,.07-.05.19-.05.25a129.81,129.81,0,0,1-25.89,31.88c-.12.06-.12.12-.23.18q-13.38,11.18-26.29,12.71a17.39,17.39,0,0,1-3.84.24,35,35,0,0,1-11.18-1.72l-.28-.41c-13.26-3.74-35.4-13.1-72.27-33.44a430.39,430.39,0,0,1-60.72-40.11,318.31,318.31,0,0,1-27.31-24.22l-.92-.92-.92-.92h0l-.92-.92c-.31-.3-.61-.61-.92-.92a318.31,318.31,0,0,1-24.22-27.31,430.83,430.83,0,0,1-40.11-60.71c-20.34-36.88-29.7-59-33.44-72.28l-.41-.28a35,35,0,0,1-1.71-11.18,16.87,16.87,0,0,1,.23-3.84Q141,181.42,152.12,168c.06-.11.12-.11.18-.23a129.53,129.53,0,0,1,31.88-25.88c.06,0,.18-.06.25-.06,12-6.25,23.38-4.13,31.12,5,.06.06,16.11,19.33,23,28.74a366.67,366.67,0,0,1,19.74,30.94c7.9,14.17,2.95,28.68-4.81,34.66l-15.65,12.44c-7.9,6.38-6.86,18.23-6.86,18.23S254.15,359.57,340.76,381.68Z"/>
    </symbol>
    <symbol id="tractor" fill="#6c757d" viewBox="0 -64 640 640">
        <path d="M528 336c-48.6 0-88 39.4-88 88s39.4 88 88 88 88-39.4 88-88-39.4-88-88-88zm0 112c-13.23 0-24-10.77-24-24s10.77-24 24-24 24 10.77 24 24-10.77 24-24 24zm80-288h-64v-40.2c0-14.12 4.7-27.76 13.15-38.84 4.42-5.8 3.55-14.06-1.32-19.49L534.2 37.3c-6.66-7.45-18.32-6.92-24.7.78C490.58 60.9 480 89.81 480 119.8V160H377.67L321.58 29.14A47.914 47.914 0 0 0 277.45 0H144c-26.47 0-48 21.53-48 48v146.52c-8.63-6.73-20.96-6.46-28.89 1.47L36 227.1c-8.59 8.59-8.59 22.52 0 31.11l5.06 5.06c-4.99 9.26-8.96 18.82-11.91 28.72H22c-12.15 0-22 9.85-22 22v44c0 12.15 9.85 22 22 22h7.14c2.96 9.91 6.92 19.46 11.91 28.73l-5.06 5.06c-8.59 8.59-8.59 22.52 0 31.11L67.1 476c8.59 8.59 22.52 8.59 31.11 0l5.06-5.06c9.26 4.99 18.82 8.96 28.72 11.91V490c0 12.15 9.85 22 22 22h44c12.15 0 22-9.85 22-22v-7.14c9.9-2.95 19.46-6.92 28.72-11.91l5.06 5.06c8.59 8.59 22.52 8.59 31.11 0l31.11-31.11c8.59-8.59 8.59-22.52 0-31.11l-5.06-5.06c4.99-9.26 8.96-18.82 11.91-28.72H330c12.15 0 22-9.85 22-22v-6h80.54c21.91-28.99 56.32-48 95.46-48 18.64 0 36.07 4.61 51.8 12.2l50.82-50.82c6-6 9.37-14.14 9.37-22.63V192c.01-17.67-14.32-32-31.99-32zM176 416c-44.18 0-80-35.82-80-80s35.82-80 80-80 80 35.82 80 80-35.82 80-80 80zm22-256h-38V64h106.89l41.15 96H198z"/>
    </symbol>
    <symbol id="vily" viewBox="0 -2 40 40">
        <g id="Group_4"  transform="translate(-405 -125)">
            <path id="Path_5"  d="M419,129a2,2,0,0,0,0-4H407a2,2,0,0,0,0,4h4v16h-4a2.006,2.006,0,0,0-2,2v8a3.549,3.549,0,0,0,1.8,2.9l4.4,2.2a4.777,4.777,0,0,0,1.8.4,3.425,3.425,0,0,0,1.8-.4l4.4-2.2A3.549,3.549,0,0,0,421,155v-8a2.006,2.006,0,0,0-2-2h-4V129Zm-2,20v5.5l-3.9,1.9h-.2l-3.9-1.9V149Z" fill="#666"/>
            <path id="Path_6"  d="M440.3,152H437V127a2,2,0,0,0-4,0v25h-3.3c-4.1,0-4.7,1.7-4.7,2.7V159a2,2,0,0,0,4,0v-3h4v3a2,2,0,0,0,4,0v-3h4v3a2,2,0,0,0,4,0v-4.3C445,153.7,444.4,152,440.3,152Z" fill="#666"/>
        </g>
    </symbol>
</svg>